<svg xmlns="http://www.w3.org/2000/svg" xmlns:xlink="http://www.w3.org/1999/xlink" width="512" zoomAndPan="magnify" viewBox="0 0 384 383.999986" height="512" preserveAspectRatio="xMidYMid meet" version="1.0"><defs><g/><clipPath id="ab38d0e76e"><path d="M 30.007812 30.007812 L 353.984375 30.007812 L 353.984375 353.984375 L 30.007812 353.984375 Z M 30.007812 30.007812 " clip-rule="nonzero"/></clipPath><clipPath id="0672e77ef7"><path d="M 191.996094 30.007812 C 102.53125 30.007812 30.007812 102.53125 30.007812 191.996094 C 30.007812 281.460938 102.53125 353.984375 191.996094 353.984375 C 281.460938 353.984375 353.984375 281.460938 353.984375 191.996094 C 353.984375 102.53125 281.460938 30.007812 191.996094 30.007812 Z M 191.996094 30.007812 " clip-rule="nonzero"/></clipPath><clipPath id="5abe5639c7"><path d="M 79.472656 79.472656 L 304.472656 79.472656 L 304.472656 304.472656 L 79.472656 304.472656 Z M 79.472656 79.472656 " clip-rule="nonzero"/></clipPath><clipPath id="657a026c6f"><path d="M 191.996094 79.472656 C 129.851562 79.472656 79.472656 129.851562 79.472656 191.996094 C 79.472656 254.140625 129.851562 304.519531 191.996094 304.519531 C 254.140625 304.519531 304.519531 254.140625 304.519531 191.996094 C 304.519531 129.851562 254.140625 79.472656 191.996094 79.472656 Z M 191.996094 79.472656 " clip-rule="nonzero"/></clipPath><clipPath id="e137888161"><path d="M 127.808594 121.070312 L 256.058594 121.070312 L 256.058594 262.820312 L 127.808594 262.820312 Z M 127.808594 121.070312 " clip-rule="nonzero"/></clipPath><clipPath id="e379bb6bed"><path d="M 186 195 L 255 195 L 255 262.820312 L 186 262.820312 Z M 186 195 " clip-rule="nonzero"/></clipPath></defs><g clip-path="url(#ab38d0e76e)"><g clip-path="url(#0672e77ef7)"><path stroke-linecap="butt" transform="matrix(0.75, 0, 0, 0.75, 30.008397, 30.008389)" fill="none" stroke-linejoin="miter" d="M 215.983613 -0.000769286 C 96.697145 -0.000769286 -0.000778886 96.697155 -0.000778886 215.983623 C -0.000778886 335.270091 96.697145 431.968015 215.983613 431.968015 C 335.270081 431.968015 431.968005 335.270091 431.968005 215.983623 C 431.968005 96.697155 335.270081 -0.000769286 215.983613 -0.000769286 Z M 215.983613 -0.000769286 " stroke="#166534" stroke-width="16" stroke-opacity="1" stroke-miterlimit="4"/></g></g><g clip-path="url(#5abe5639c7)"><g clip-path="url(#657a026c6f)"><path stroke-linecap="butt" transform="matrix(0.75, 0, 0, 0.75, 79.47236, 79.472353)" fill="none" stroke-linejoin="miter" d="M 150.031657 0.000404455 C 67.172275 0.000404455 0.000394855 67.172285 0.000394855 150.031666 C 0.000394855 232.891048 67.172275 300.062928 150.031657 300.062928 C 232.891038 300.062928 300.062919 232.891048 300.062919 150.031666 C 300.062919 67.172285 232.891038 0.000404455 150.031657 0.000404455 Z M 150.031657 0.000404455 " stroke="#166534" stroke-width="14" stroke-opacity="1" stroke-miterlimit="4"/></g></g><g fill="#b5832c" fill-opacity="1"><g transform="translate(76.870915, 148.66478)"><g><path d="M -13.671875 -14.875 L -16.875 -8.1875 L -20.796875 -10.0625 L -12.109375 -28.234375 L -8.1875 -26.359375 L -11.375 -19.703125 L 5.546875 -11.625 L 3.25 -6.796875 Z M -13.671875 -14.875 "/></g></g></g><g fill="#b5832c" fill-opacity="1"><g transform="translate(84.979143, 130.843257)"><g><path d="M -4.625 -32.921875 L 14.0625 -19.34375 L 10.921875 -15.03125 L 3.265625 -20.59375 L -2.90625 -12.09375 L 4.75 -6.53125 L 1.609375 -2.21875 L -17.078125 -15.796875 L -13.9375 -20.109375 L -6.5625 -14.75 L -0.390625 -23.25 L -7.765625 -28.609375 Z M -4.625 -32.921875 "/></g></g></g><g fill="#b5832c" fill-opacity="1"><g transform="translate(100.213118, 110.099459)"><g><path d="M 12.109375 -17.234375 L 15.046875 -14.09375 L 2 -1.875 L -13.78125 -18.734375 L -1.03125 -30.671875 L 1.890625 -27.546875 L -6.984375 -19.234375 L -3.5625 -15.5625 L 4.265625 -22.90625 L 7.109375 -19.875 L -0.71875 -12.53125 L 2.9375 -8.640625 Z M 12.109375 -17.234375 "/></g></g></g><g fill="#b5832c" fill-opacity="1"><g transform="translate(116.426946, 95.435111)"><g/></g></g><g fill="#b5832c" fill-opacity="1"><g transform="translate(123.433369, 89.714733)"><g><path d="M 15.359375 -8.28125 L 8.375 -11.84375 L 8.140625 -11.71875 L 4.046875 -9.5 L 7.109375 -3.828125 L 2.40625 -1.296875 L -8.5625 -21.625 L 0.234375 -26.375 C 2.046875 -27.34375 3.773438 -27.882812 5.421875 -28 C 7.078125 -28.125 8.554688 -27.828125 9.859375 -27.109375 C 11.171875 -26.390625 12.234375 -25.273438 13.046875 -23.765625 C 13.859375 -22.253906 14.195312 -20.753906 14.0625 -19.265625 C 13.925781 -17.785156 13.351562 -16.390625 12.34375 -15.078125 L 20.421875 -11.015625 Z M 8.296875 -21.1875 C 7.679688 -22.332031 6.835938 -23.007812 5.765625 -23.21875 C 4.691406 -23.4375 3.453125 -23.164062 2.046875 -22.40625 L -1.796875 -20.328125 L 2.03125 -13.234375 L 5.875 -15.3125 C 7.28125 -16.070312 8.1875 -16.957031 8.59375 -17.96875 C 9 -18.988281 8.898438 -20.0625 8.296875 -21.1875 Z M 8.296875 -21.1875 "/></g></g></g><g fill="#b5832c" fill-opacity="1"><g transform="translate(143.888996, 78.515583)"><g><path d="M 13.984375 -16.828125 L 18.65625 -18.28125 L 21.4375 -9.34375 C 20.507812 -8.0625 19.332031 -6.929688 17.90625 -5.953125 C 16.488281 -4.984375 14.976562 -4.25 13.375 -3.75 C 11.082031 -3.039062 8.867188 -2.882812 6.734375 -3.28125 C 4.609375 -3.6875 2.753906 -4.59375 1.171875 -6 C -0.410156 -7.414062 -1.539062 -9.21875 -2.21875 -11.40625 C -2.894531 -13.59375 -2.976562 -15.710938 -2.46875 -17.765625 C -1.96875 -19.816406 -0.945312 -21.617188 0.59375 -23.171875 C 2.132812 -24.734375 4.0625 -25.875 6.375 -26.59375 C 8.3125 -27.195312 10.164062 -27.414062 11.9375 -27.25 C 13.71875 -27.09375 15.335938 -26.5625 16.796875 -25.65625 L 14.453125 -21.609375 C 12.367188 -22.773438 10.210938 -23.007812 7.984375 -22.3125 C 6.578125 -21.875 5.414062 -21.191406 4.5 -20.265625 C 3.59375 -19.347656 3.003906 -18.253906 2.734375 -16.984375 C 2.460938 -15.722656 2.539062 -14.398438 2.96875 -13.015625 C 3.394531 -11.648438 4.078125 -10.523438 5.015625 -9.640625 C 5.953125 -8.765625 7.054688 -8.195312 8.328125 -7.9375 C 9.597656 -7.675781 10.925781 -7.757812 12.3125 -8.1875 C 13.78125 -8.644531 15.003906 -9.367188 15.984375 -10.359375 Z M 13.984375 -16.828125 "/></g></g></g><g fill="#b5832c" fill-opacity="1"><g transform="translate(167.25244, 71.186274)"><g><path d="M 22.328125 -25.625 L 14.859375 -1.609375 L 9.609375 -1.03125 L -2.78125 -22.921875 L 2.96875 -23.546875 L 11.71875 -7.90625 L 17.046875 -25.0625 Z M 22.328125 -25.625 "/></g></g></g><g fill="#b5832c" fill-opacity="1"><g transform="translate(191.392776, 69.069229)"><g/></g></g><g fill="#b5832c" fill-opacity="1"><g transform="translate(200.356255, 68.664635)"><g><path d="M 27.453125 -18.75 L 23.578125 4.015625 L 19.25 3.28125 L 10.265625 -12.484375 L 7.90625 1.34375 L 2.703125 0.453125 L 6.578125 -22.3125 L 10.921875 -21.5625 L 19.90625 -5.828125 L 22.25 -19.640625 Z M 27.453125 -18.75 "/></g></g></g><g fill="#b5832c" fill-opacity="1"><g transform="translate(225.584333, 72.778861)"><g><path d="M 12.796875 5.515625 C 10.566406 4.628906 8.742188 3.347656 7.328125 1.671875 C 5.921875 0.00390625 5.046875 -1.875 4.703125 -3.96875 C 4.367188 -6.0625 4.625 -8.15625 5.46875 -10.25 C 6.300781 -12.363281 7.554688 -14.054688 9.234375 -15.328125 C 10.921875 -16.609375 12.851562 -17.375 15.03125 -17.625 C 17.207031 -17.875 19.410156 -17.554688 21.640625 -16.671875 C 23.859375 -15.785156 25.664062 -14.503906 27.0625 -12.828125 C 28.457031 -11.160156 29.328125 -9.28125 29.671875 -7.1875 C 30.023438 -5.09375 29.785156 -2.988281 28.953125 -0.875 C 28.109375 1.21875 26.835938 2.898438 25.140625 4.171875 C 23.453125 5.453125 21.523438 6.21875 19.359375 6.46875 C 17.203125 6.71875 15.015625 6.398438 12.796875 5.515625 Z M 14.484375 1.296875 C 15.742188 1.804688 17 1.972656 18.25 1.796875 C 19.5 1.617188 20.625 1.125 21.625 0.3125 C 22.632812 -0.5 23.40625 -1.566406 23.9375 -2.890625 C 24.457031 -4.222656 24.628906 -5.523438 24.453125 -6.796875 C 24.285156 -8.066406 23.804688 -9.195312 23.015625 -10.1875 C 22.234375 -11.175781 21.210938 -11.925781 19.953125 -12.4375 C 18.679688 -12.945312 17.414062 -13.113281 16.15625 -12.9375 C 14.90625 -12.757812 13.78125 -12.265625 12.78125 -11.453125 C 11.78125 -10.640625 11.019531 -9.566406 10.5 -8.234375 C 9.96875 -6.910156 9.785156 -5.613281 9.953125 -4.34375 C 10.117188 -3.070312 10.597656 -1.941406 11.390625 -0.953125 C 12.179688 0.0351562 13.210938 0.785156 14.484375 1.296875 Z M 14.484375 1.296875 "/></g></g></g><g fill="#b5832c" fill-opacity="1"><g transform="translate(250.503101, 82.99692)"><g><path d="M 16.421875 -11.765625 L 10.171875 -15.75 L 12.515625 -19.421875 L 29.5 -8.609375 L 27.15625 -4.9375 L 20.921875 -8.90625 L 10.859375 6.90625 L 6.359375 4.046875 Z M 16.421875 -11.765625 "/></g></g></g><g fill="#b5832c" fill-opacity="1"><g transform="translate(267.208566, 93.288495)"><g><path d="M 16.5625 8.53125 L 8.671875 1.265625 L 3.8125 3.515625 L -0.21875 -0.203125 L 23.015625 -10.203125 L 26.890625 -6.625 L 18.828125 17.359375 L 14.703125 13.5625 Z M 18.0625 4.40625 L 21.375 -4.578125 L 12.6875 -0.5625 Z M 18.0625 4.40625 "/></g></g></g><g fill="#b5832c" fill-opacity="1"><g transform="translate(285.131471, 109.757774)"><g><path d="M 10.34375 14.0625 L 12.890625 6.65625 L 12.734375 6.453125 L 9.96875 2.703125 L 4.78125 6.515625 L 1.625 2.203125 L 20.234375 -11.46875 L 26.15625 -3.40625 C 27.363281 -1.757812 28.140625 -0.128906 28.484375 1.484375 C 28.828125 3.097656 28.734375 4.601562 28.203125 6 C 27.679688 7.394531 26.726562 8.601562 25.34375 9.625 C 23.957031 10.644531 22.519531 11.191406 21.03125 11.265625 C 19.539062 11.335938 18.082031 10.957031 16.65625 10.125 L 13.734375 18.703125 Z M 22.140625 5.265625 C 23.191406 4.492188 23.75 3.5625 23.8125 2.46875 C 23.875 1.382812 23.425781 0.195312 22.46875 -1.09375 L 19.890625 -4.59375 L 13.390625 0.1875 L 15.96875 3.6875 C 16.925781 4.976562 17.9375 5.753906 19 6.015625 C 20.0625 6.273438 21.109375 6.023438 22.140625 5.265625 Z M 22.140625 5.265625 "/></g></g></g><g fill="#b5832c" fill-opacity="1"><g transform="translate(298.992535, 128.634615)"><g><path d="M 13.40625 8.859375 L 6.046875 12.4375 L 3.703125 7.625 L 11.125 4.015625 L 20.5625 -10.515625 L 23.046875 -5.40625 L 16.53125 4.625 L 28.453125 5.703125 L 30.734375 10.40625 Z M 13.40625 8.859375 "/></g></g></g><g fill="#b5832c" fill-opacity="1"><g transform="translate(51.748321, 221.135151)"><g><path d="M 2.59375 8.828125 C 2.144531 7.359375 2.0625 5.941406 2.34375 4.578125 C 2.625 3.210938 3.234375 2.019531 4.171875 1 C 5.109375 -0.0195312 6.285156 -0.75 7.703125 -1.1875 C 9.117188 -1.625 10.5 -1.6875 11.84375 -1.375 C 13.1875 -1.0625 14.363281 -0.414062 15.375 0.5625 C 16.382812 1.539062 17.113281 2.757812 17.5625 4.21875 C 17.90625 5.3125 18.035156 6.375 17.953125 7.40625 C 17.878906 8.445312 17.585938 9.398438 17.078125 10.265625 L 15.78125 9.578125 C 16.59375 8.078125 16.726562 6.453125 16.1875 4.703125 C 15.832031 3.535156 15.238281 2.550781 14.40625 1.75 C 13.582031 0.957031 12.625 0.4375 11.53125 0.1875 C 10.4375 -0.0625 9.316406 -0.0078125 8.171875 0.34375 C 7.015625 0.707031 6.054688 1.300781 5.296875 2.125 C 4.535156 2.945312 4.035156 3.914062 3.796875 5.03125 C 3.566406 6.15625 3.628906 7.300781 3.984375 8.46875 C 4.523438 10.226562 5.566406 11.492188 7.109375 12.265625 L 6.4375 13.5625 C 5.53125 13.132812 4.742188 12.507812 4.078125 11.6875 C 3.421875 10.863281 2.925781 9.910156 2.59375 8.828125 Z M 2.59375 8.828125 "/></g></g></g><g fill="#b5832c" fill-opacity="1"><g transform="translate(56.709639, 237.021682)"><g><path d="M 8.671875 9.484375 L 5.21875 1.625 L 0.703125 1.59375 L 0.015625 0.046875 L 16.953125 0.28125 L 17.59375 1.75 L 6.34375 14.40625 L 5.65625 12.828125 Z M 9.640625 8.40625 L 15.71875 1.6875 L 6.65625 1.640625 Z M 9.640625 8.40625 "/></g></g></g><g fill="#b5832c" fill-opacity="1"><g transform="translate(63.361641, 252.39513)"><g><path d="M 22.796875 7.75 L 9.65625 15.78125 L 8.828125 14.453125 L 19.328125 8.03125 L 7.359375 8.28125 L 6.953125 7.625 L 12.578125 -2.921875 L 2.125 3.46875 L 1.3125 2.140625 L 14.453125 -5.890625 L 15.140625 -4.75 L 8.90625 6.90625 L 22.09375 6.609375 Z M 22.796875 7.75 "/></g></g></g><g fill="#b5832c" fill-opacity="1"><g transform="translate(75.025876, 270.971844)"><g><path d="M 9.5 9.546875 L 8.40625 10.421875 L 1.578125 1.953125 L 13.5625 -7.71875 L 20.1875 0.5 L 19.09375 1.390625 L 13.484375 -5.5625 L 9.21875 -2.125 L 14.21875 4.0625 L 13.140625 4.9375 L 8.140625 -1.25 L 3.6875 2.34375 Z M 9.5 9.546875 "/></g></g></g><g fill="#b5832c" fill-opacity="1"><g transform="translate(84.777869, 283.040277)"><g><path d="M 9.265625 9.171875 L 10.234375 3.171875 C 9.921875 2.921875 9.613281 2.644531 9.3125 2.34375 L 6.375 -0.5625 L 2.9375 2.90625 L 1.78125 1.765625 L 12.625 -9.1875 L 16.71875 -5.140625 C 18.113281 -3.753906 18.875 -2.332031 19 -0.875 C 19.132812 0.582031 18.625 1.894531 17.46875 3.0625 C 16.613281 3.914062 15.675781 4.421875 14.65625 4.578125 C 13.644531 4.742188 12.613281 4.5625 11.5625 4.03125 L 10.53125 10.421875 Z M 10.25 1.34375 C 11.332031 2.414062 12.398438 2.992188 13.453125 3.078125 C 14.503906 3.171875 15.457031 2.785156 16.3125 1.921875 C 17.1875 1.035156 17.570312 0.0703125 17.46875 -0.96875 C 17.363281 -2.007812 16.769531 -3.066406 15.6875 -4.140625 L 12.78125 -7.03125 L 7.34375 -1.546875 Z M 10.25 1.34375 "/></g></g></g><g fill="#b5832c" fill-opacity="1"><g transform="translate(96.703078, 294.889805)"><g><path d="M 7.234375 5.71875 C 6.035156 4.789062 5.148438 3.679688 4.578125 2.390625 C 4.003906 1.097656 3.804688 -0.226562 3.984375 -1.59375 C 4.160156 -2.957031 4.703125 -4.226562 5.609375 -5.40625 C 6.503906 -6.570312 7.585938 -7.414062 8.859375 -7.9375 C 10.140625 -8.457031 11.476562 -8.609375 12.875 -8.390625 C 14.28125 -8.179688 15.582031 -7.613281 16.78125 -6.6875 C 18 -5.75 18.882812 -4.640625 19.4375 -3.359375 C 20 -2.085938 20.191406 -0.765625 20.015625 0.609375 C 19.847656 1.992188 19.316406 3.269531 18.421875 4.4375 C 17.515625 5.613281 16.414062 6.460938 15.125 6.984375 C 13.84375 7.503906 12.507812 7.65625 11.125 7.4375 C 9.75 7.226562 8.453125 6.65625 7.234375 5.71875 Z M 8.109375 4.578125 C 9.078125 5.328125 10.117188 5.78125 11.234375 5.9375 C 12.359375 6.101562 13.4375 5.96875 14.46875 5.53125 C 15.507812 5.101562 16.398438 4.410156 17.140625 3.453125 C 17.867188 2.503906 18.304688 1.472656 18.453125 0.359375 C 18.609375 -0.753906 18.460938 -1.828125 18.015625 -2.859375 C 17.566406 -3.890625 16.859375 -4.78125 15.890625 -5.53125 C 14.929688 -6.269531 13.890625 -6.722656 12.765625 -6.890625 C 11.648438 -7.066406 10.570312 -6.9375 9.53125 -6.5 C 8.5 -6.070312 7.617188 -5.382812 6.890625 -4.4375 C 6.148438 -3.476562 5.703125 -2.441406 5.546875 -1.328125 C 5.398438 -0.210938 5.550781 0.863281 6 1.90625 C 6.445312 2.945312 7.148438 3.835938 8.109375 4.578125 Z M 8.109375 4.578125 "/></g></g></g><g fill="#b5832c" fill-opacity="1"><g transform="translate(112.13885, 306.658782)"><g><path d="M 21.015625 -5.65625 L 13.3125 7.6875 L 12.15625 7.015625 L 9.84375 -8.765625 L 3.59375 2.0625 L 2.171875 1.25 L 9.875 -12.09375 L 11.03125 -11.421875 L 13.375 4.359375 L 19.625 -6.46875 Z M 21.015625 -5.65625 "/></g></g></g><g fill="#b5832c" fill-opacity="1"><g transform="translate(128.293648, 315.648061)"><g/></g></g><g fill="#b5832c" fill-opacity="1"><g transform="translate(133.799861, 318.223221)"><g><path d="M 4.65625 -2.75 C 4.238281 -2.925781 3.941406 -3.222656 3.765625 -3.640625 C 3.597656 -4.066406 3.609375 -4.507812 3.796875 -4.96875 C 3.972656 -5.394531 4.269531 -5.691406 4.6875 -5.859375 C 5.101562 -6.023438 5.519531 -6.019531 5.9375 -5.84375 C 6.363281 -5.675781 6.664062 -5.382812 6.84375 -4.96875 C 7.019531 -4.550781 7.019531 -4.128906 6.84375 -3.703125 C 6.65625 -3.265625 6.347656 -2.953125 5.921875 -2.765625 C 5.503906 -2.585938 5.082031 -2.582031 4.65625 -2.75 Z M 4.65625 -2.75 "/></g></g></g><g fill="#b5832c" fill-opacity="1"><g transform="translate(140.092397, 320.813685)"><g/></g></g><g fill="#b5832c" fill-opacity="1"><g transform="translate(146.016874, 323.212893)"><g><path d="M 18.828125 -10.890625 L 14.84375 3.984375 L 13.296875 3.5625 L 15.140625 -3.296875 L 5.84375 -5.78125 L 4 1.078125 L 2.4375 0.65625 L 6.421875 -14.21875 L 7.984375 -13.796875 L 6.203125 -7.15625 L 15.5 -4.671875 L 17.28125 -11.3125 Z M 18.828125 -10.890625 "/></g></g></g><g fill="#b5832c" fill-opacity="1"><g transform="translate(163.966298, 327.737454)"><g><path d="M 5.125 -14.734375 L 6.71875 -14.453125 L 4.078125 0.71875 L 2.484375 0.4375 Z M 5.125 -14.734375 "/></g></g></g><g fill="#b5832c" fill-opacity="1"><g transform="translate(171.117137, 329.219796)"><g><path d="M 3.765625 -15.15625 L 10.015625 -14.640625 C 11.640625 -14.503906 13.046875 -14.054688 14.234375 -13.296875 C 15.421875 -12.535156 16.304688 -11.546875 16.890625 -10.328125 C 17.484375 -9.109375 17.722656 -7.753906 17.609375 -6.265625 C 17.484375 -4.773438 17.023438 -3.476562 16.234375 -2.375 C 15.453125 -1.269531 14.414062 -0.445312 13.125 0.09375 C 11.832031 0.644531 10.375 0.851562 8.75 0.71875 L 2.5 0.203125 Z M 8.765625 -0.6875 C 10.117188 -0.570312 11.320312 -0.738281 12.375 -1.1875 C 13.425781 -1.644531 14.269531 -2.320312 14.90625 -3.21875 C 15.539062 -4.125 15.910156 -5.1875 16.015625 -6.40625 C 16.109375 -7.632812 15.914062 -8.742188 15.4375 -9.734375 C 14.957031 -10.722656 14.238281 -11.519531 13.28125 -12.125 C 12.320312 -12.738281 11.164062 -13.101562 9.8125 -13.21875 L 5.28125 -13.59375 L 4.234375 -1.0625 Z M 8.765625 -0.6875 "/></g></g></g><g fill="#b5832c" fill-opacity="1"><g transform="translate(190.117416, 330.661209)"><g><path d="M 11.984375 -4.609375 L 3.421875 -4.25 L 1.734375 -0.078125 L 0.046875 0 L 6.453125 -15.6875 L 8.0625 -15.75 L 15.71875 -0.640625 L 14 -0.578125 Z M 11.34375 -5.90625 L 7.3125 -14.015625 L 3.96875 -5.609375 Z M 11.34375 -5.90625 "/></g></g></g><g fill="#b5832c" fill-opacity="1"><g transform="translate(206.616209, 329.870375)"><g><path d="M 0.25 -15.609375 L 1.859375 -15.84375 L 3.890625 -1.984375 L 12.421875 -3.25 L 12.625 -1.859375 L 2.484375 -0.359375 Z M 0.25 -15.609375 "/></g></g></g><g fill="#b5832c" fill-opacity="1"><g transform="translate(220.224006, 327.942892)"><g><path d="M 10.984375 -10.8125 L 12.5 -11.21875 L 13.984375 -5.53125 C 13.441406 -4.726562 12.738281 -4.039062 11.875 -3.46875 C 11.007812 -2.90625 10.050781 -2.484375 9 -2.203125 C 7.507812 -1.816406 6.082031 -1.789062 4.71875 -2.125 C 3.351562 -2.46875 2.179688 -3.128906 1.203125 -4.109375 C 0.222656 -5.097656 -0.453125 -6.304688 -0.828125 -7.734375 C -1.203125 -9.171875 -1.203125 -10.554688 -0.828125 -11.890625 C -0.453125 -13.222656 0.25 -14.367188 1.28125 -15.328125 C 2.3125 -16.296875 3.578125 -16.976562 5.078125 -17.375 C 6.210938 -17.664062 7.300781 -17.75 8.34375 -17.625 C 9.382812 -17.507812 10.320312 -17.191406 11.15625 -16.671875 L 10.4375 -15.40625 C 8.96875 -16.257812 7.320312 -16.453125 5.5 -15.984375 C 4.300781 -15.671875 3.28125 -15.117188 2.4375 -14.328125 C 1.601562 -13.546875 1.03125 -12.609375 0.71875 -11.515625 C 0.414062 -10.421875 0.414062 -9.296875 0.71875 -8.140625 C 1.019531 -6.972656 1.570312 -5.992188 2.375 -5.203125 C 3.175781 -4.410156 4.128906 -3.867188 5.234375 -3.578125 C 6.335938 -3.285156 7.492188 -3.296875 8.703125 -3.609375 C 10.234375 -4.015625 11.425781 -4.742188 12.28125 -5.796875 Z M 10.984375 -10.8125 "/></g></g></g><g fill="#b5832c" fill-opacity="1"><g transform="translate(237.580653, 323.410806)"><g><path d="M 8.609375 -3.34375 C 7.203125 -2.78125 5.796875 -2.578125 4.390625 -2.734375 C 2.984375 -2.890625 1.734375 -3.390625 0.640625 -4.234375 C -0.441406 -5.078125 -1.265625 -6.1875 -1.828125 -7.5625 C -2.378906 -8.9375 -2.550781 -10.300781 -2.34375 -11.65625 C -2.144531 -13.019531 -1.597656 -14.253906 -0.703125 -15.359375 C 0.191406 -16.460938 1.34375 -17.296875 2.75 -17.859375 C 4.164062 -18.429688 5.566406 -18.632812 6.953125 -18.46875 C 8.335938 -18.300781 9.578125 -17.796875 10.671875 -16.953125 C 11.773438 -16.109375 12.601562 -15 13.15625 -13.625 C 13.71875 -12.25 13.894531 -10.875 13.6875 -9.5 C 13.488281 -8.125 12.945312 -6.894531 12.0625 -5.8125 C 11.175781 -4.738281 10.023438 -3.914062 8.609375 -3.34375 Z M 8.078125 -4.671875 C 9.210938 -5.128906 10.128906 -5.796875 10.828125 -6.671875 C 11.535156 -7.554688 11.960938 -8.554688 12.109375 -9.671875 C 12.265625 -10.785156 12.113281 -11.898438 11.65625 -13.015625 C 11.207031 -14.128906 10.539062 -15.035156 9.65625 -15.734375 C 8.78125 -16.429688 7.785156 -16.847656 6.671875 -16.984375 C 5.554688 -17.117188 4.429688 -16.957031 3.296875 -16.5 C 2.171875 -16.039062 1.25 -15.375 0.53125 -14.5 C -0.1875 -13.625 -0.625 -12.628906 -0.78125 -11.515625 C -0.9375 -10.398438 -0.789062 -9.285156 -0.34375 -8.171875 C 0.113281 -7.054688 0.785156 -6.148438 1.671875 -5.453125 C 2.554688 -4.753906 3.5625 -4.332031 4.6875 -4.1875 C 5.820312 -4.050781 6.953125 -4.210938 8.078125 -4.671875 Z M 8.078125 -4.671875 "/></g></g></g><g fill="#b5832c" fill-opacity="1"><g transform="translate(255.150373, 315.986353)"><g/></g></g><g fill="#b5832c" fill-opacity="1"><g transform="translate(260.56514, 313.224189)"><g><path d="M 0.6875 -5.375 C 0.289062 -5.144531 -0.117188 -5.09375 -0.546875 -5.21875 C -0.984375 -5.34375 -1.328125 -5.617188 -1.578125 -6.046875 C -1.804688 -6.453125 -1.859375 -6.867188 -1.734375 -7.296875 C -1.609375 -7.722656 -1.347656 -8.050781 -0.953125 -8.28125 C -0.554688 -8.5 -0.144531 -8.550781 0.28125 -8.4375 C 0.71875 -8.332031 1.050781 -8.078125 1.28125 -7.671875 C 1.519531 -7.265625 1.578125 -6.832031 1.453125 -6.375 C 1.335938 -5.925781 1.082031 -5.59375 0.6875 -5.375 Z M 0.6875 -5.375 "/></g></g></g><g fill="#b5832c" fill-opacity="1"><g transform="translate(266.474214, 309.851244)"><g/></g></g><g fill="#b5832c" fill-opacity="1"><g transform="translate(272.295782, 306.748718)"><g><path d="M 8.953125 -26.765625 L 14.453125 -11.46875 L 13.109375 -10.40625 L 1.40625 -17.90625 L 6.03125 -4.796875 L 4.703125 -3.734375 L -8.9375 -12.5625 L -7.625 -13.609375 L 4.09375 -6 L -0.546875 -19.234375 L 0.640625 -20.171875 L 12.46875 -12.5625 L 7.71875 -25.796875 Z M 8.953125 -26.765625 "/></g></g></g><g fill="#b5832c" fill-opacity="1"><g transform="translate(291.709262, 290.63601)"><g><path d="M -9.09375 -12.6875 L -7.9375 -13.828125 L 2.9375 -2.921875 L 1.78125 -1.78125 Z M -9.09375 -12.6875 "/></g></g></g><g fill="#b5832c" fill-opacity="1"><g transform="translate(296.841403, 285.652115)"><g><path d="M -9.96875 -12.015625 L -8.90625 -13.234375 L 1.65625 -4.046875 L 7.3125 -10.5625 L 8.375 -9.640625 L 1.65625 -1.90625 Z M -9.96875 -12.015625 "/></g></g></g><g fill="#b5832c" fill-opacity="1"><g transform="translate(305.757188, 275.343126)"><g><path d="M -11.0625 -11.015625 L -10.125 -12.34375 L 1.265625 -4.1875 L 6.28125 -11.1875 L 7.421875 -10.375 L 1.46875 -2.046875 Z M -11.0625 -11.015625 "/></g></g></g><g fill="#b5832c" fill-opacity="1"><g transform="translate(313.761534, 264.21274)"><g><path d="M 2.4375 -12.609375 L -1.796875 -5.15625 L 0.859375 -1.515625 L 0.015625 -0.046875 L -9.890625 -13.765625 L -9.09375 -15.15625 L 7.765625 -13.6875 L 6.921875 -12.1875 Z M 0.984375 -12.75 L -8.03125 -13.609375 L -2.671875 -6.328125 Z M 0.984375 -12.75 "/></g></g></g><g fill="#b5832c" fill-opacity="1"><g transform="translate(321.919336, 249.75887)"><g><path d="M 3.703125 -8.421875 C 3.109375 -7.015625 2.265625 -5.878906 1.171875 -5.015625 C 0.078125 -4.148438 -1.15625 -3.628906 -2.53125 -3.453125 C -3.90625 -3.273438 -5.273438 -3.476562 -6.640625 -4.0625 C -7.992188 -4.632812 -9.085938 -5.476562 -9.921875 -6.59375 C -10.753906 -7.707031 -11.238281 -8.960938 -11.375 -10.359375 C -11.507812 -11.753906 -11.28125 -13.148438 -10.6875 -14.546875 C -10.238281 -15.597656 -9.648438 -16.5 -8.921875 -17.25 C -8.203125 -18 -7.367188 -18.53125 -6.421875 -18.84375 L -5.890625 -17.5 C -7.460938 -16.875 -8.609375 -15.71875 -9.328125 -14.03125 C -9.804688 -12.90625 -9.984375 -11.769531 -9.859375 -10.625 C -9.742188 -9.488281 -9.347656 -8.472656 -8.671875 -7.578125 C -8.003906 -6.691406 -7.117188 -6.015625 -6.015625 -5.546875 C -4.898438 -5.066406 -3.785156 -4.894531 -2.671875 -5.03125 C -1.566406 -5.175781 -0.5625 -5.597656 0.34375 -6.296875 C 1.25 -7.003906 1.941406 -7.921875 2.421875 -9.046875 C 3.140625 -10.742188 3.15625 -12.378906 2.46875 -13.953125 L 3.828125 -14.5 C 4.242188 -13.601562 4.4375 -12.625 4.40625 -11.5625 C 4.382812 -10.507812 4.148438 -9.460938 3.703125 -8.421875 Z M 3.703125 -8.421875 "/></g></g></g><g fill="#b5832c" fill-opacity="1"><g transform="translate(328.317395, 234.449852)"><g><path d="M -2.84375 -9 L 2.25 -7.453125 L 1.78125 -5.921875 L -3.3125 -7.46875 L -14.75 -4.46875 L -14.234375 -6.140625 L -4.4375 -8.703125 L -11.1875 -16.234375 L -10.71875 -17.8125 Z M -2.84375 -9 "/></g></g></g><g clip-path="url(#e137888161)"><path fill="#166534" d="M 253.371094 144.96875 L 244.589844 144.96875 L 244.589844 136.1875 C 244.589844 134.632812 243.332031 133.375 241.773438 133.375 L 232.996094 133.375 L 232.996094 123.933594 C 232.996094 122.375 231.734375 121.117188 230.179688 121.117188 L 165.367188 121.117188 C 165.363281 121.117188 165.355469 121.117188 165.351562 121.117188 C 165.316406 121.117188 165.28125 121.117188 165.246094 121.121094 C 165.234375 121.121094 165.222656 121.121094 165.214844 121.121094 C 165.171875 121.121094 165.132812 121.125 165.09375 121.128906 C 165.078125 121.132812 165.058594 121.132812 165.042969 121.136719 C 165.019531 121.136719 164.996094 121.140625 164.976562 121.144531 C 164.953125 121.148438 164.929688 121.148438 164.910156 121.152344 C 164.894531 121.15625 164.882812 121.160156 164.867188 121.160156 C 164.816406 121.171875 164.761719 121.179688 164.714844 121.191406 C 164.707031 121.195312 164.703125 121.195312 164.699219 121.195312 C 164.671875 121.203125 164.640625 121.210938 164.613281 121.21875 C 164.605469 121.21875 164.601562 121.222656 164.59375 121.222656 C 164.503906 121.25 164.414062 121.28125 164.328125 121.316406 C 164.324219 121.316406 164.320312 121.320312 164.3125 121.320312 C 164.285156 121.332031 164.261719 121.34375 164.234375 121.355469 C 164.226562 121.359375 164.21875 121.363281 164.210938 121.363281 C 164.132812 121.398438 164.058594 121.4375 163.984375 121.480469 C 163.96875 121.488281 163.953125 121.496094 163.9375 121.507812 C 163.917969 121.515625 163.902344 121.527344 163.882812 121.539062 C 163.863281 121.550781 163.847656 121.5625 163.828125 121.574219 C 163.8125 121.582031 163.800781 121.59375 163.785156 121.601562 C 163.753906 121.625 163.722656 121.644531 163.691406 121.667969 C 163.679688 121.675781 163.671875 121.683594 163.660156 121.691406 C 163.636719 121.710938 163.617188 121.726562 163.59375 121.746094 C 163.582031 121.753906 163.570312 121.761719 163.558594 121.773438 C 163.539062 121.792969 163.515625 121.808594 163.496094 121.828125 C 163.484375 121.835938 163.476562 121.84375 163.46875 121.855469 C 163.464844 121.855469 163.460938 121.859375 163.457031 121.863281 L 128.710938 154.011719 C 128.652344 154.0625 128.597656 154.121094 128.546875 154.175781 C 128.539062 154.183594 128.53125 154.195312 128.523438 154.203125 C 128.503906 154.222656 128.484375 154.246094 128.464844 154.269531 C 128.457031 154.28125 128.449219 154.292969 128.4375 154.300781 C 128.421875 154.324219 128.402344 154.347656 128.382812 154.371094 C 128.375 154.382812 128.367188 154.390625 128.363281 154.402344 C 128.335938 154.433594 128.316406 154.464844 128.292969 154.496094 C 128.285156 154.507812 128.277344 154.523438 128.269531 154.535156 C 128.253906 154.554688 128.242188 154.578125 128.226562 154.597656 C 128.21875 154.613281 128.207031 154.632812 128.195312 154.652344 C 128.1875 154.667969 128.179688 154.683594 128.167969 154.699219 C 128.15625 154.71875 128.144531 154.738281 128.136719 154.761719 C 128.128906 154.769531 128.125 154.78125 128.121094 154.789062 C 128.078125 154.871094 128.039062 154.957031 128.003906 155.042969 C 128.003906 155.046875 128 155.050781 128 155.058594 C 127.953125 155.179688 127.914062 155.304688 127.882812 155.433594 C 127.878906 155.441406 127.878906 155.453125 127.875 155.460938 C 127.871094 155.488281 127.863281 155.515625 127.859375 155.542969 C 127.855469 155.554688 127.855469 155.570312 127.851562 155.582031 C 127.84375 155.617188 127.839844 155.65625 127.835938 155.691406 C 127.832031 155.71875 127.828125 155.742188 127.824219 155.769531 C 127.824219 155.785156 127.820312 155.800781 127.820312 155.820312 C 127.816406 155.847656 127.816406 155.878906 127.8125 155.910156 C 127.8125 155.921875 127.8125 155.933594 127.8125 155.945312 C 127.808594 155.988281 127.808594 156.03125 127.808594 156.074219 C 127.808594 156.078125 127.808594 156.078125 127.808594 156.078125 L 127.808594 260.0625 C 127.808594 261.617188 129.070312 262.878906 130.625 262.878906 L 194.273438 262.878906 C 195.828125 262.878906 197.089844 261.617188 197.089844 260.0625 C 197.089844 258.507812 195.828125 257.25 194.273438 257.25 L 133.4375 257.25 L 133.4375 158.894531 L 165.367188 158.894531 C 166.921875 158.894531 168.183594 157.632812 168.183594 156.078125 L 168.183594 126.746094 L 227.363281 126.746094 L 227.363281 189.820312 C 227.363281 191.375 228.625 192.632812 230.179688 192.632812 C 231.734375 192.632812 232.996094 191.375 232.996094 189.820312 L 232.996094 139.003906 L 238.960938 139.003906 L 238.960938 195.703125 C 238.960938 197.257812 240.21875 198.519531 241.777344 198.519531 C 243.332031 198.519531 244.589844 197.257812 244.589844 195.703125 L 244.589844 150.601562 L 250.554688 150.601562 L 250.554688 207.972656 C 250.554688 209.527344 251.816406 210.789062 253.371094 210.789062 C 254.925781 210.789062 256.1875 209.527344 256.1875 207.972656 L 256.1875 147.785156 C 256.1875 146.230469 254.925781 144.96875 253.371094 144.96875 Z M 162.550781 153.261719 L 137.8125 153.261719 L 162.550781 130.375 Z M 162.550781 153.261719 " fill-opacity="1" fill-rule="nonzero"/></g><g clip-path="url(#e379bb6bed)"><path fill="#166534" d="M 244.289062 205.011719 C 241.175781 201.898438 237.550781 199.457031 233.515625 197.746094 C 229.332031 195.980469 224.894531 195.082031 220.320312 195.082031 C 215.742188 195.082031 211.304688 195.980469 207.121094 197.746094 C 203.085938 199.457031 199.460938 201.898438 196.347656 205.011719 C 193.234375 208.125 190.792969 211.75 189.085938 215.785156 C 187.316406 219.96875 186.417969 224.40625 186.417969 228.980469 C 186.417969 233.558594 187.316406 237.996094 189.085938 242.179688 C 190.792969 246.214844 193.234375 249.839844 196.347656 252.953125 C 199.460938 256.066406 203.085938 258.507812 207.121094 260.214844 C 211.304688 261.984375 215.742188 262.882812 220.320312 262.882812 C 224.894531 262.882812 229.332031 261.984375 233.515625 260.214844 C 237.550781 258.507812 241.175781 256.066406 244.289062 252.953125 C 247.402344 249.839844 249.84375 246.214844 251.554688 242.179688 C 253.320312 237.996094 254.21875 233.558594 254.21875 228.980469 C 254.21875 224.40625 253.320312 219.96875 251.554688 215.785156 C 249.84375 211.75 247.402344 208.125 244.289062 205.011719 Z M 246.367188 239.984375 C 244.941406 243.351562 242.902344 246.371094 240.308594 248.96875 C 237.710938 251.566406 234.6875 253.605469 231.320312 255.027344 C 227.839844 256.503906 224.136719 257.25 220.320312 257.25 C 216.503906 257.25 212.800781 256.503906 209.316406 255.027344 C 205.953125 253.605469 202.929688 251.566406 200.332031 248.96875 C 197.734375 246.371094 195.695312 243.351562 194.273438 239.984375 C 192.796875 236.5 192.050781 232.800781 192.050781 228.980469 C 192.050781 225.164062 192.796875 221.464844 194.273438 217.980469 C 195.695312 214.613281 197.734375 211.589844 200.332031 208.992188 C 202.929688 206.398438 205.953125 204.359375 209.316406 202.933594 C 212.800781 201.460938 216.503906 200.714844 220.320312 200.714844 C 224.136719 200.714844 227.839844 201.460938 231.320312 202.933594 C 234.6875 204.359375 237.710938 206.398438 240.308594 208.992188 C 242.902344 211.589844 244.941406 214.613281 246.367188 217.980469 C 247.839844 221.464844 248.585938 225.164062 248.585938 228.980469 C 248.585938 232.800781 247.839844 236.5 246.367188 239.984375 Z M 246.367188 239.984375 " fill-opacity="1" fill-rule="nonzero"/></g><path fill="#166534" d="M 179.105469 145.75 L 212.824219 145.75 C 214.378906 145.75 215.640625 144.488281 215.640625 142.933594 C 215.640625 141.378906 214.378906 140.117188 212.824219 140.117188 L 179.105469 140.117188 C 177.550781 140.117188 176.289062 141.378906 176.289062 142.933594 C 176.289062 144.488281 177.550781 145.75 179.105469 145.75 Z M 179.105469 145.75 " fill-opacity="1" fill-rule="nonzero"/><path fill="#166534" d="M 179.105469 161.824219 L 212.824219 161.824219 C 214.378906 161.824219 215.640625 160.5625 215.640625 159.007812 C 215.640625 157.453125 214.378906 156.191406 212.824219 156.191406 L 179.105469 156.191406 C 177.550781 156.191406 176.289062 157.453125 176.289062 159.007812 C 176.289062 160.5625 177.550781 161.824219 179.105469 161.824219 Z M 179.105469 161.824219 " fill-opacity="1" fill-rule="nonzero"/><path fill="#166534" d="M 145.742188 175.082031 C 145.742188 176.636719 147.003906 177.894531 148.558594 177.894531 L 212.824219 177.894531 C 214.378906 177.894531 215.640625 176.636719 215.640625 175.082031 C 215.640625 173.523438 214.378906 172.265625 212.824219 172.265625 L 148.558594 172.265625 C 147.003906 172.265625 145.742188 173.523438 145.742188 175.082031 Z M 145.742188 175.082031 " fill-opacity="1" fill-rule="nonzero"/><path fill="#166534" d="M 148.558594 193.96875 L 205.207031 193.96875 C 206.761719 193.96875 208.023438 192.707031 208.023438 191.152344 C 208.023438 189.597656 206.761719 188.335938 205.207031 188.335938 L 148.558594 188.335938 C 147.003906 188.335938 145.742188 189.597656 145.742188 191.152344 C 145.742188 192.707031 147.003906 193.96875 148.558594 193.96875 Z M 148.558594 193.96875 " fill-opacity="1" fill-rule="nonzero"/><path fill="#166534" d="M 188.246094 207.226562 C 188.246094 205.671875 186.984375 204.410156 185.429688 204.410156 L 148.558594 204.410156 C 147.003906 204.410156 145.742188 205.671875 145.742188 207.226562 C 145.742188 208.78125 147.003906 210.042969 148.558594 210.042969 L 185.429688 210.042969 C 186.984375 210.042969 188.246094 208.78125 188.246094 207.226562 Z M 188.246094 207.226562 " fill-opacity="1" fill-rule="nonzero"/><path fill="#166534" d="M 148.558594 226.117188 L 179.5 226.117188 C 181.054688 226.117188 182.316406 224.855469 182.316406 223.300781 C 182.316406 221.746094 181.054688 220.484375 179.5 220.484375 L 148.558594 220.484375 C 147.003906 220.484375 145.742188 221.746094 145.742188 223.300781 C 145.742188 224.855469 147.003906 226.117188 148.558594 226.117188 Z M 148.558594 226.117188 " fill-opacity="1" fill-rule="nonzero"/><path fill="#166534" d="M 148.558594 242.1875 L 180.691406 242.1875 C 182.246094 242.1875 183.507812 240.929688 183.507812 239.375 C 183.507812 237.816406 182.246094 236.558594 180.691406 236.558594 L 148.558594 236.558594 C 147.003906 236.558594 145.742188 237.816406 145.742188 239.375 C 145.742188 240.929688 147.003906 242.1875 148.558594 242.1875 Z M 148.558594 242.1875 " fill-opacity="1" fill-rule="nonzero"/><path fill="#166534" d="M 213.398438 236.261719 L 204.320312 227.179688 L 198.742188 232.753906 L 213.398438 247.410156 L 240.710938 220.097656 L 235.136719 214.523438 Z M 213.398438 236.261719 " fill-opacity="1" fill-rule="nonzero"/></svg>